{"title":"I Segreti Osceni Di Cuba - Obscene Secrets Of Cuba(2005)","uid":6712735,"size":733321216,"categoryP":"porn","categoryS":"movies","magnet":"?xt=urn:btih:cb53b883539835ad0a26bf9e18a745aec01ef2b8&amp;dn=I+Segreti+Osceni+Di+Cuba+-+Obscene+Secrets+Of+Cuba%282005%29&amp;tr=udp%3A%2F%2Ftracker.openbittorrent.com%3A80&amp;tr=udp%3A%2F%2Fopen.demonii.com%3A1337&amp;tr=udp%3A%2F%2Ftracker.coppersurfer.tk%3A6969&amp;tr=udp%3A%2F%2Fexodus.desync.com%3A6969","seeders":0,"leechers":0,"uploader":"silviuss","files":1,"time":1317420407,"description":"I Segreti Osceni Di Cuba - Obscene Secrets Of Cuba(2005)\n\nCover: &lt;a href=&quot;\nhttp://imagebb.org/view.php?filename=93434c34c34c34.jpg&quot; rel=&quot;nofollow&quot; target=&quot;_NEW&quot;&gt;\nhttp://imagebb.org/view.php?filename=93434c34c34c34.jpg&lt;/a&gt;\n\nPreview: &lt;a href=&quot;\nhttp://imagebb.org/view.php?filename=910I.S.O.D.Cuba_s.jpg&quot; rel=&quot;nofollow&quot; target=&quot;_NEW&quot;&gt;\nhttp://imagebb.org/view.php?filename=910I.S.O.D.Cuba_s.jpg&lt;/a&gt;\n\nInfo:\nFormat                           : AVI\nFormat/Info                      : Audio Video Interleave\nFile size                        : 699 MiB\nDuration                         : 1h 22mn\nOverall bit rate                 : 1 185 Kbps\nWriting application              : VirtualDubMod 1.5.10.2 (build 2540/release)\nWriting library                  : VirtualDubMod build 2540/release\n\nVideo\nID                               : 0\nFormat                           : MPEG-4 Visual\nFormat profile                   : Advanced Simple@L5\nFormat settings, BVOP            : 2\nFormat settings, QPel            : No\nFormat settings, GMC             : No warppoints\nFormat settings, Matrix          : Default (H.263)\nMuxing mode                      : Packed bitstream\nCodec ID                         : XVID\nCodec ID/Hint                    : XviD\nDuration                         : 1h 22mn\nBit rate                         : 983 Kbps\nWidth                            : 560 pixels\nHeight                           : 416 pixels\nDisplay aspect ratio             : 4:3\nFrame rate                       : 25.000 fps\nColor space                      : YUV\nChroma subsampling               : 4:2:0\nBit depth                        : 8 bits\nScan type                        : Progressive\nCompression mode                 : Lossy\nBits/(Pixel*Frame)               : 0.169\nStream size                      : 580 MiB (83%)\nWriting library                  : XviD 1.0.3 (UTC 2004-12-20)\n\nAudio\nID                               : 1\nFormat                           : AC-3\nFormat/Info                      : Audio Coding 3\nMode extension                   : CM (complete main)\nCodec ID                         : 2000\nDuration                         : 1h 22mn\nBit rate mode                    : Constant\nBit rate                         : 192 Kbps\nChannel(s)                       : 2 channels\nChannel positions                : Front: L R\nSampling rate                    : 48.0 KHz\nBit depth                        : 16 bits\nCompression mode                 : Lossy\nStream size                      : 113 MiB (16%)\nAlignment                        : Split accross interleaves\nInterleave, duration             : 40 ms (1.00 video frame)\nInterleave, preload duration     : 500 ms\n\n","torrent":{"xt":"urn:btih:cb53b883539835ad0a26bf9e18a745aec01ef2b8","amp;dn":"I+Segreti+Osceni+Di+Cuba+-+Obscene+Secrets+Of+Cuba%282005%29","amp;tr":["udp%3A%2F%2Ftracker.openbittorrent.com%3A80","udp%3A%2F%2Fopen.demonii.com%3A1337","udp%3A%2F%2Ftracker.coppersurfer.tk%3A6969","udp%3A%2F%2Fexodus.desync.com%3A6969"],"infoHash":"cb53b883539835ad0a26bf9e18a745aec01ef2b8","infoHashBuffer":{"type":"Buffer","data":[203,83,184,131,83,152,53,173,10,38,191,158,24,167,69,174,192,30,242,184]},"announce":[],"urlList":[]}}